PathFileType	4	(X/Y/Z)	 s01c0301.trc
DataRate	CameraRate	NumFrames	NumMarkers	Units	OrigDataRate	OrigDataStartFrame	OrigNumFrames
200	200	7	48	mm	200	1251	2000
Frame#	Time	racr			lacr			c7			jug			rlel			rdr			llel			ldr			s2			lic			ric			lasi			rasi			rpsi			lpsi			rgt			lgt			rth1			rth2			rth3			rth4			rlfc			rsh1			rsh2			rsh3			rsh4			rlmal			rmmal			rcal			rtoe			rmt5			lth1			lth2			lth4			lth3			llfc			lsh1			lsh2			lsh3			lsh4			llmal			lmmal			lcal			ltoe			lmt5			SBIKE			LBIKE			RBIKE			
		X1	Y1	Z1	X2	Y2	Z2	X3	Y3	Z3	X4	Y4	Z4	X5	Y5	Z5	X6	Y6	Z6	X7	Y7	Z7	X8	Y8	Z8	X9	Y9	Z9	X10	Y10	Z10	X11	Y11	Z11	X12	Y12	Z12	X13	Y13	Z13	X14	Y14	Z14	X15	Y15	Z15	X16	Y16	Z16	X17	Y17	Z17	X18	Y18	Z18	X19	Y19	Z19	X20	Y20	Z20	X21	Y21	Z21	X22	Y22	Z22	X23	Y23	Z23	X24	Y24	Z24	X25	Y25	Z25	X26	Y26	Z26	X27	Y27	Z27	X28	Y28	Z28	X29	Y29	Z29	X30	Y30	Z30	X31	Y31	Z31	X32	Y32	Z32	X33	Y33	Z33	X34	Y34	Z34	X35	Y35	Z35	X36	Y36	Z36	X37	Y37	Z37	X38	Y38	Z38	X39	Y39	Z39	X40	Y40	Z40	X41	Y41	Z41	X42	Y42	Z42	X43	Y43	Z43	X44	Y44	Z44	X45	Y45	Z45	X46	Y46	Z46	X47	Y47	Z47	X48	Y48	Z48	
1251	6.2550	715.724922	1370.732861	-95.657088	758.075442	1308.665948	-422.205969	721.194335	1411.778599	-260.192409	695.880983	1247.327508	-249.817717	616.376932	1099.100676	9.014198	730.991207	873.583623	-59.866450	656.528987	1066.596227	-560.838861	730.822881	856.664940	-444.844767	179.897022	1228.920626	-295.999118	355.238775	1234.376959	-461.628055	325.385868	1211.800274	-130.921872	352.401651	1177.566569	-437.298144	355.734092	1168.254633	-163.257615	209.504547	1263.690228	-241.384914	211.179574	1274.443091	-347.061198	271.364196	1098.611742	-115.630117	293.355028	1100.262911	-487.276932	336.973583	983.221580	-98.723092	383.691015	914.744728	-103.014422	429.252602	837.073216	-113.651032	430.517302	943.236942	-115.258108	465.152806	729.869531	-132.354836	414.148761	623.330343	-91.369664	388.472484	542.412419	-91.375982	353.455392	460.888047	-96.408132	431.698532	526.263831	-130.701505	290.298041	350.081630	-108.163989	342.790884	353.922575	-182.749488	244.485119	330.726275	-160.363426	497.134487	237.443170	-127.985154	385.026936	239.046037	-64.448458	346.734187	985.310589	-496.477200	407.937967	920.779523	-491.847847	445.996359	956.473182	-479.548976	457.508310	852.876484	-476.508459	488.145226	745.085452	-450.945430	378.805757	706.142707	-478.701627	306.465010	660.169593	-465.671797	231.685853	620.275373	-448.800593	338.228019	618.559774	-433.120869	126.197402	562.167133	-421.216468	152.519334	547.003122	-343.252661	75.778411	582.378616	-375.775910	200.522122	333.716924	-370.331109	129.542689	410.782071	-440.701303	-223.132533	893.208305	-249.829322	-12.131315	84.556186	-453.896120	-20.251979	80.857667	-53.805362	
1252	6.2600	716.987881	1370.212354	-95.719934	758.137824	1308.901559	-422.818380	722.171602	1411.289615	-260.112910	696.986182	1246.702359	-249.981337	617.709305	1098.470566	8.861065	731.483338	872.428413	-60.021152	656.480322	1066.476764	-560.697145	732.270894	857.308484	-444.788473	180.510237	1227.295537	-293.491412	354.947664	1234.636733	-459.833414	326.916558	1210.050428	-129.038032	352.448433	1177.330095	-435.640953	356.884279	1166.123890	-161.345279	210.546301	1261.747488	-238.902114	211.472398	1273.201110	-344.337230	271.524736	1096.078742	-114.525167	294.164930	1100.385576	-486.090673	334.662606	979.970036	-97.211796	379.716527	910.453365	-101.452523	423.539312	831.643419	-112.160221	427.407440	937.844755	-113.583821	458.027576	723.538843	-130.982452	408.361815	616.168140	-90.095718	383.442584	534.965547	-90.343616	349.204739	453.133893	-95.447648	426.149388	519.437559	-130.409828	287.314896	341.856484	-108.450209	338.933442	345.829892	-182.165386	240.505018	325.448839	-158.629588	492.139714	226.363416	-128.093662	380.259444	229.908603	-64.355961	349.703702	986.561518	-496.186287	412.924475	923.772110	-493.043250	450.067881	960.647850	-480.452953	464.508315	857.271386	-478.315781	496.112788	750.442553	-453.125872	385.578187	712.689995	-480.255890	312.712277	667.574619	-466.708525	237.573324	628.441823	-449.172427	344.419967	625.578437	-434.959773	131.536474	571.231784	-421.377441	158.470872	556.046850	-343.167110	81.459277	591.515419	-375.608763	206.364062	342.912034	-370.180816	135.359029	419.971876	-440.565054	-223.074688	893.207466	-249.695211	-12.114231	84.569138	-453.867412	-20.254374	80.818568	-53.790283	
1253	6.2650	718.228571	1369.643728	-96.044940	758.106532	1309.252105	-423.488822	723.174089	1410.830346	-260.042920	698.024140	1246.445325	-250.065469	619.269650	1097.910369	8.630876	731.911358	871.381864	-60.097497	656.423686	1066.361096	-560.406144	731.811270	857.103553	-444.036516	181.080631	1225.745506	-290.821457	354.635383	1234.962602	-457.908684	328.452240	1208.485789	-127.146029	352.554767	1177.065788	-433.905926	357.839151	1164.285634	-158.678520	211.601677	1259.943987	-236.310535	211.732811	1272.035742	-341.537109	271.523861	1093.793279	-113.340907	294.936711	1100.705795	-485.153675	332.165210	977.000812	-95.675895	375.598210	906.348312	-99.764199	417.577028	826.500372	-110.400503	423.941509	932.614815	-111.880880	450.839369	717.128598	-129.699529	401.880399	609.410919	-88.557217	377.788049	527.906364	-89.094049	344.431878	445.660486	-94.296611	420.427845	513.094816	-129.353124	283.396257	334.330056	-108.103888	334.723469	338.415446	-181.209203	236.857012	319.482739	-157.895567	486.599876	215.396371	-128.417215	375.042457	220.891026	-64.098391	352.690160	987.945672	-495.547409	417.934350	927.305278	-494.296529	454.176311	965.047261	-481.346691	471.592159	862.176214	-480.226034	503.816502	756.100809	-455.372136	392.469942	719.466394	-481.687589	319.398517	675.202637	-467.693823	242.344930	637.276779	-449.510383	350.851335	632.573768	-436.407227	137.896506	579.935829	-421.264909	165.475246	565.125464	-342.746032	87.836268	600.258487	-375.335797	212.738739	351.731364	-369.973868	141.635527	428.826931	-440.297115	-222.981095	893.232028	-249.564190	-12.088325	84.581328	-453.839822	-20.218037	80.813034	-53.751337	
1254	6.2700	719.550874	1368.977347	-96.442489	758.041315	1309.853314	-424.336139	724.021522	1410.555954	-260.167290	699.076478	1246.271720	-250.372201	621.031054	1097.472291	8.314168	732.410198	870.268663	-60.245782	656.305688	1066.256895	-560.010648	731.413865	856.986906	-443.440915	181.735422	1224.357593	-288.105460	354.251699	1235.112230	-455.953909	330.140884	1206.999095	-125.289991	352.654288	1176.789435	-432.093251	359.156699	1162.179028	-157.091899	212.809225	1258.289798	-233.666786	212.016545	1270.931119	-338.683548	271.743545	1091.653606	-112.048674	295.549847	1100.878647	-483.810410	329.632281	974.207387	-93.871536	371.328235	902.509117	-97.943858	411.318526	821.728896	-108.476513	420.276518	927.595015	-109.962211	442.906011	711.161477	-127.842263	394.432446	603.216273	-86.545091	371.490069	521.399075	-87.325275	339.147501	438.733383	-92.711708	414.312581	507.103230	-127.715701	279.288191	327.334395	-107.338341	330.184071	331.658453	-179.924438	232.950414	314.127462	-156.715936	480.464944	205.097106	-127.871225	369.225494	212.127964	-64.180211	355.710848	990.023346	-495.333707	422.732101	931.305095	-495.507275	458.058744	969.847542	-481.897410	478.248225	867.514075	-481.971205	511.196100	761.995690	-457.556551	399.502342	726.398410	-483.175942	326.193568	682.745091	-468.651249	251.139260	644.267993	-448.608633	357.625054	639.605090	-437.823948	145.447357	588.221496	-420.676010	172.176754	573.257470	-342.734571	94.786146	608.685496	-375.020400	219.718984	360.194784	-369.792581	148.674569	437.335166	-440.086046	-222.892152	893.241294	-249.434736	-12.057758	84.613370	-453.803914	-20.184244	80.806041	-53.723868	
1255	6.2750	720.987442	1368.299344	-96.886742	757.899736	1310.584127	-425.245241	724.844225	1410.414534	-260.243829	700.119996	1246.304265	-250.840928	623.064494	1097.060090	8.084339	732.908418	869.085958	-60.241587	656.143608	1066.190531	-559.559916	731.123489	856.975975	-442.866819	182.434844	1223.061162	-285.226727	353.835108	1235.335877	-454.042658	331.883703	1205.563081	-123.554373	352.643903	1176.581004	-430.277002	360.537820	1160.185089	-155.388459	214.051515	1256.754164	-230.894793	212.306279	1269.830981	-335.781174	271.833150	1089.640643	-110.644169	296.095570	1101.172771	-482.419217	327.032611	971.709146	-91.919257	366.881798	899.050113	-95.958504	404.652683	817.427650	-106.411548	416.480519	922.753724	-107.921100	434.355566	705.577820	-125.554362	386.463154	597.336819	-84.208649	364.553253	515.268231	-85.165963	333.348022	432.280982	-90.906647	407.390743	501.537712	-125.396239	274.823939	320.671331	-106.204923	325.338355	325.538130	-178.354587	228.612624	309.212596	-155.534353	473.871940	194.804396	-128.314886	363.294926	204.183102	-63.836356	358.405932	992.506849	-495.177491	427.114697	935.543365	-496.449563	461.423165	974.984217	-482.536714	484.407173	873.243584	-483.622386	518.277371	768.716492	-459.877460	406.802934	733.366715	-484.493186	333.282498	690.057271	-469.457027	258.264698	651.950897	-448.774971	364.790037	646.797345	-439.209609	152.099823	595.938182	-420.723047	179.904101	581.177996	-342.303511	102.258919	616.503290	-374.712992	227.215388	368.258193	-369.600798	156.114402	445.430933	-439.770530	-222.805335	893.260022	-249.304671	-11.975425	84.603711	-453.826013	-20.142890	80.810192	-53.697874	
1256	6.2800	722.445233	1367.607660	-97.438205	757.712662	1311.296695	-426.110918	725.548130	1410.391480	-260.471437	701.124964	1246.528367	-251.385363	625.159551	1096.576455	8.067146	733.579140	868.113985	-60.437328	655.821582	1066.158731	-558.989654	730.970710	857.023621	-442.457668	183.204687	1221.884679	-282.307311	353.365471	1235.462641	-452.117891	333.779750	1204.115192	-121.849962	352.718886	1176.475949	-428.552214	361.993794	1158.194153	-153.741103	215.399547	1255.290172	-228.071476	212.670438	1268.838804	-332.792850	272.091988	1087.867696	-109.281197	296.597638	1101.544859	-481.049027	324.368391	969.479887	-89.896352	362.426665	895.692662	-93.759294	398.082789	813.284153	-104.031165	412.532896	918.298252	-105.750679	425.345824	700.262547	-122.991953	377.929028	592.101145	-81.743210	357.026431	509.760878	-82.870283	326.909307	426.302346	-88.828635	400.297187	496.587586	-122.837545	269.977183	314.618866	-104.903758	320.209425	320.033693	-176.543147	223.861435	304.751748	-154.006674	466.709108	185.156990	-128.752237	356.675317	196.292348	-63.729621	360.816379	995.311719	-495.030263	430.987703	940.151772	-497.450563	464.397137	980.406735	-483.287797	489.954755	879.246313	-485.219908	525.732126	774.857822	-461.716673	414.298395	740.369227	-485.753964	340.711451	697.344400	-470.217433	264.743491	660.004063	-448.815375	372.330266	653.751596	-440.302745	160.167663	603.305436	-420.552662	187.669353	588.975716	-342.050642	110.264178	623.951260	-374.293208	235.089566	375.564891	-369.313635	163.935897	453.052070	-439.479745	-222.708586	893.284873	-249.143531	-11.946462	84.639543	-453.787287	-20.126461	80.791506	-53.680342	
1257	6.2850	723.848870	1367.030421	-98.105555	757.256102	1312.184609	-427.269926	726.130956	1410.362180	-260.741046	702.126068	1246.763512	-252.060411	627.311853	1096.036297	8.083464	734.120889	867.108959	-60.387657	655.408432	1066.203946	-558.425515	730.724372	857.068558	-442.007622	184.027719	1220.798316	-279.294923	352.843572	1235.434954	-450.212563	335.755378	1202.721775	-120.203039	352.756898	1176.425283	-426.835928	363.363535	1156.326681	-152.157648	216.685088	1254.004839	-225.144331	213.071476	1267.908681	-329.809160	272.462748	1086.277975	-107.618026	296.909829	1102.259376	-479.732232	321.600144	967.487127	-87.737353	357.810703	892.741174	-91.405493	391.378990	809.442520	-101.490519	408.436144	914.017102	-103.542927	415.881996	695.465464	-120.107139	369.079187	587.359778	-79.150232	349.019558	504.857077	-80.445709	319.906546	421.124011	-86.592272	392.819316	492.141229	-120.064832	264.590708	309.002737	-103.650110	314.820390	315.124359	-174.533614	218.630034	300.873525	-152.355530	458.980416	175.858968	-129.332687	349.609184	189.008024	-63.673673	362.923664	998.324912	-494.837434	434.538055	945.044913	-498.180613	466.995362	985.967014	-484.012539	495.026503	885.477888	-486.804480	532.953994	781.710198	-463.812290	421.919758	747.326070	-486.777074	348.415119	704.440713	-470.868474	272.678124	667.032397	-448.930616	380.231886	660.722279	-441.387825	169.015740	610.328007	-420.217973	196.255556	595.383770	-343.244905	118.700611	630.964805	-373.925343	243.537630	382.660004	-369.215989	172.366750	460.083854	-439.122810	-222.670258	893.325114	-248.981851	-11.907567	84.687623	-453.781424	-20.078024	80.781156	-53.634463	
